<?xml version="1.0" encoding="utf-8"?>
<!-- Generator: Adobe Illustrator 25.2.3, SVG Export Plug-In . SVG Version: 6.00 Build 0)  -->
<svg version="1.1" id="Camada_1" xmlns="http://www.w3.org/2000/svg" xmlns:xlink="http://www.w3.org/1999/xlink" x="0px" y="0px"
	 viewBox="0 0 448 512" style="enable-background:new 0 0 448 512;" xml:space="preserve">
<style type="text/css">
	.st0{fill:#FFFFFF;}
</style>
<path class="st0" d="M32,32C14.3,32,0,46.3,0,64v96c0,17.7,14.3,32,32,32s32-14.3,32-32V96h64c17.7,0,32-14.3,32-32s-14.3-32-32-32
	H32z M64,352c0-17.7-14.3-32-32-32S0,334.3,0,352v96c0,17.7,14.3,32,32,32h96c17.7,0,32-14.3,32-32s-14.3-32-32-32H64V352z M320,32
	c-17.7,0-32,14.3-32,32s14.3,32,32,32h64v64c0,17.7,14.3,32,32,32s32-14.3,32-32V64c0-17.7-14.3-32-32-32H320z M448,352
	c0-17.7-14.3-32-32-32s-32,14.3-32,32v64h-64c-17.7,0-32,14.3-32,32s14.3,32,32,32h96c17.7,0,32-14.3,32-32V352z"/>
</svg>
